HIERARCHY
ROOT Hips
{
    OFFSET 0.000000 0.000000 0.000000
    CHANNELS 6 Xposition Yposition Zposition Zrotation Xrotation Yrotation
    JOINT Spine
    {
        OFFSET -0.000000 14.517291 0.000000
        CHANNELS 3 Zrotation Xrotation Yrotation
        JOINT Spine1
        {
            OFFSET -0.000000 37.558300 0.000000
            CHANNELS 3 Zrotation Xrotation Yrotation
            JOINT Neck
            {
                OFFSET -0.000000 37.404057 3.400369
                CHANNELS 3 Zrotation Xrotation Yrotation
                JOINT Head
                {
                    OFFSET -0.000000 24.785618 -3.540803
                    CHANNELS 3 Zrotation Xrotation Yrotation
                    End Site
                    {
                        OFFSET -0.000000 35.408028 0.000000
                    }
                }
            }
            JOINT LeftShoulder
            {
                OFFSET 6.992933 33.973492 -0.192664
                CHANNELS 3 Zrotation Xrotation Yrotation
                JOINT LeftArm
                {
                    OFFSET 21.527611 0.000000 0.000000
                    CHANNELS 3 Zrotation Xrotation Yrotation
                    JOINT LeftForeArm
                    {
                        OFFSET 56.353916 0.000000 0.000000
                        CHANNELS 3 Zrotation Xrotation Yrotation
                        JOINT LeftHand
                        {
                            OFFSET 47.774071 0.000000 0.000000
                            CHANNELS 3 Zrotation Xrotation Yrotation
                            End Site
                            {
                                OFFSET 26.556021 0.000000 0.000000
                            }
                        }
                    }
                }
            }
            JOINT RightShoulder
            {
                OFFSET -7.065357 33.973492 -0.192664
                CHANNELS 3 Zrotation Xrotation Yrotation
                JOINT RightArm
                {
                    OFFSET -21.527611 0.000000 0.000000
                    CHANNELS 3 Zrotation Xrotation Yrotation
                    JOINT RightForeArm
                    {
                        OFFSET -56.353916 0.000000 0.000000
                        CHANNELS 3 Zrotation Xrotation Yrotation
                        JOINT RightHand
                        {
                            OFFSET -47.774071 0.000000 0.000000
                            CHANNELS 3 Zrotation Xrotation Yrotation
                            End Site
                            {
                                OFFSET -26.556021 0.000000 0.000000
                            }
                        }
                    }
                }
            }
        }
    }
    JOINT LeftUpLeg
    {
        OFFSET 17.704014 0.000000 0.000000
        CHANNELS 3 Zrotation Xrotation Yrotation
        JOINT LeftLeg
        {
            OFFSET -0.000000 -81.181816 0.000000
            CHANNELS 3 Zrotation Xrotation Yrotation
            JOINT LeftFoot
            {
                OFFSET -0.000000 -62.821102 0.000000
                CHANNELS 3 Zrotation Xrotation Yrotation
                JOINT LeftToeBase
                {
                    OFFSET -0.000000 -11.507608 26.556021
                    CHANNELS 3 Zrotation Xrotation Yrotation
                    End Site
                    {
                        OFFSET -0.000000 0.000000 7.081605
                    }
                }
            }
        }
    }
    JOINT RightUpLeg
    {
        OFFSET -17.704014 0.000000 0.000000
        CHANNELS 3 Zrotation Xrotation Yrotation
        JOINT RightLeg
        {
            OFFSET -0.000000 -81.181816 0.000000
            CHANNELS 3 Zrotation Xrotation Yrotation
            JOINT RightFoot
            {
                OFFSET -0.000000 -62.821102 0.000000
                CHANNELS 3 Zrotation Xrotation Yrotation
                JOINT RightToeBase
                {
                    OFFSET -0.000000 -11.507608 26.556021
                    CHANNELS 3 Zrotation Xrotation Yrotation
                    End Site
                    {
                        OFFSET -0.000000 0.000000 7.081605
                    }
                }
            }
        }
    }
}
MOTION
Frames:    8
Frame Time:    0.008333
-21.331903    163.096954    -79.244461    -7.972556    -22.176003    42.383984    2.755199    5.581933    -4.597964    5.492322    8.289351    -1.888216    20.884113    -0.888397    -0.980957    0.125405    -0.466592    -4.308341    11.816512    7.333042    -20.921448    -36.758759    23.407820    -36.955765    -3.513271    -32.096020    -111.776489    -1.396417    -36.292797    -9.499442    11.916842    9.624099    -12.602922    36.640728    27.621906    12.798819    33.836346    21.689877    17.003050    19.426273    19.400242    16.063730    24.054941    -0.193986    5.869978    -5.226305    37.620995    -16.329473    9.336810    -22.229445    35.680187    0.000000    0.000000    0.000000    -88.279724    -45.286381    -54.322914    7.782903    16.003830    -8.287905    21.905478    14.251589    -36.876293    0.000000    0.000000    0.000000    
-21.318903    163.099716    -79.247414    -7.997580    -22.124863    42.375931    2.736533    5.543288    -4.632381    5.504492    8.307654    -1.902099    20.907219    -0.900050    -0.963645    0.100187    -0.502853    -4.299886    11.830878    7.321563    -20.931665    -36.723770    23.447163    -36.977093    -3.502791    -32.132965    -111.782974    -1.414452    -36.314404    -9.534248    11.906034    9.607690    -12.612106    36.613770    27.576054    12.760187    33.834282    21.655018    16.979652    19.433596    19.377499    16.091030    24.024551    -0.234688    5.859926    -5.238700    37.600739    -16.314335    9.358521    -22.207329    35.712589    0.000000    0.000000    0.000000    -88.330536    -45.283661    -54.338871    7.770826    15.974820    -8.299243    21.901785    14.287678    -36.875072    0.000000    0.000000    0.000000    
-21.314224    163.105011    -79.257240    -8.029384    -22.071825    42.352474    2.746295    5.534368    -4.672156    5.484759    8.312602    -1.914029    20.895302    -0.997656    -0.934432    0.113984    -0.463967    -4.283880    11.845075    7.293519    -20.845034    -36.660027    23.547663    -37.060677    -3.474133    -32.208168    -111.802284    -1.400381    -36.354469    -9.509890    11.882591    9.575089    -12.652781    36.571106    27.523102    12.768709    33.854130    21.651922    16.949657    19.403503    19.375330    16.087141    23.999765    -0.273643    5.867383    -5.244725    37.572697    -16.291819    9.355363    -22.193180    35.710773    0.000000    0.000000    0.000000    -88.375641    -45.299656    -54.386616    7.748363    15.945109    -8.298812    21.904238    14.318074    -36.885353    0.000000    0.000000    0.000000    
-21.305344    163.114197    -79.264496    -8.053752    -22.033136    42.335625    2.739973    5.507502    -4.698945    5.475527    8.330482    -1.923474    20.945087    -1.003364    -0.920894    0.076875    -0.502806    -4.284366    11.878810    7.292354    -20.854610    -36.627266    23.584827    -37.103436    -3.450655    -32.266411    -111.798592    -1.421995    -36.380337    -9.495681    11.879214    9.542234    -12.636533    36.531849    27.475122    12.710692    33.827820    21.605577    16.960003    19.412117    19.334824    16.113605    23.978519    -0.292632    5.863562    -5.259541    37.530441    -16.269936    9.376025    -22.167862    35.731483    0.000000    0.000000    0.000000    -88.393150    -45.303185    -54.392223    7.736130    15.901801    -8.308861    21.928804    14.311487    -36.909523    0.000000    0.000000    0.000000    
-21.294106    163.121933    -79.275200    -8.070112    -22.005508    42.318138    2.741471    5.497191    -4.716258    5.463303    8.348520    -1.929249    20.952248    -1.019544    -0.914229    0.090013    -0.533891    -4.279668    11.907028    7.277998    -20.875021    -36.607227    23.597115    -37.123035    -3.431817    -32.281559    -111.792938    -1.415108    -36.372459    -9.490202    11.878984    9.500529    -12.633231    36.466827    27.431414    12.671161    33.798798    21.577139    16.975838    19.423948    19.309711    16.127657    23.954750    -0.298226    5.881650    -5.247364    37.492905    -16.267647    9.371044    -22.161131    35.736008    0.000000    0.000000    0.000000    -88.395103    -45.307552    -54.383644    7.727706    15.855821    -8.329390    21.956043    14.316659    -36.970329    0.000000    0.000000    0.000000    
-21.283350    163.131561    -79.286972    -8.088858    -21.981691    42.297787    2.741367    5.485350    -4.728861    5.459713    8.381301    -1.934864    20.990522    -1.042609    -0.902535    0.052783    -0.578622    -4.283514    11.933876    7.268269    -20.891294    -36.604660    23.556465    -37.131123    -3.505114    -32.149689    -111.760002    -1.354120    -36.331440    -9.950632    11.879630    9.433652    -12.635756    36.373337    27.331158    12.656478    33.825474    21.576534    16.927433    19.480797    19.324015    16.109388    23.938259    -0.300931    5.894553    -5.240293    37.453896    -16.270624    9.381440    -22.140572    35.740688    0.000000    0.000000    0.000000    -88.379280    -45.313126    -54.384697    7.697119    15.803534    -8.359382    21.986929    14.326340    -36.970490    0.000000    0.000000    0.000000    
-21.274544    163.133881    -79.306427    -8.103459    -21.947451    42.272594    2.729639    5.489070    -4.734788    5.466706    8.377092    -1.937305    21.015989    -1.062177    -0.896402    0.022283    -0.597592    -4.289485    11.993656    7.385945    -20.803469    -36.472000    23.561922    -37.388927    -3.472037    -32.241257    -111.682022    -1.448661    -36.365810    -10.029841    11.866955    9.395417    -12.620967    36.284367    27.205458    12.653645    33.864025    21.569588    16.837688    19.486486    19.352898    16.197989    23.905106    -0.319397    5.925180    -5.212931    37.436039    -16.268888    9.372856    -22.135437    35.734558    0.000000    0.000000    0.000000    -88.384758    -45.326656    -54.394722    7.673821    15.745918    -8.382460    21.996878    14.369025    -37.006104    0.000000    0.000000    0.000000    
-21.267590    163.136978    -79.326073    -8.123298    -21.921459    42.248211    2.733847    5.482108    -4.744655    5.459510    8.391209    -1.940734    21.032160    -1.065390    -0.897484    0.011780    -0.637703    -4.295372    12.009044    7.381137    -20.817032    -36.445576    23.552715    -37.422920    -3.479544    -32.241852    -111.672173    -1.475146    -36.372467    -10.065946    11.856901    9.341801    -12.604194    36.189209    27.119474    12.656510    33.837822    21.558580    16.790476    19.385000    19.363596    16.307552    23.886721    -0.340588    5.941067    -5.201365    37.428272    -16.269293    9.363789    -22.126408    35.735638    0.000000    0.000000    0.000000    -88.373871    -45.330952    -54.393539    7.659219    15.685473    -8.395203    22.035868    14.373108    -37.074852    0.000000    0.000000    0.000000    
